<?xml version="1.0" standalone="no"?>
<!DOCTYPE svg PUBLIC "-//W3C//DTD SVG 20010904//EN"
 "http://www.w3.org/TR/2001/REC-SVG-20010904/DTD/svg10.dtd">
<svg version="1.0" xmlns="http://www.w3.org/2000/svg"
 width="455.000000pt" height="126.000000pt" viewBox="0 0 455.000000 126.000000"
 preserveAspectRatio="xMidYMid meet">

<g transform="translate(0.000000,126.000000) scale(0.100000,-0.100000)"
fill="#000000" stroke="none">
<path d="M2430 685 l0 -365 55 0 55 0 0 365 0 365 -55 0 -55 0 0 -365z"/>
<path d="M270 674 c-69 -185 -126 -341 -128 -345 -2 -5 23 -9 56 -9 l60 0 31
86 c17 47 31 89 31 95 0 5 56 9 134 9 l134 0 33 -95 32 -95 59 0 c32 0 58 4
58 8 0 5 -56 159 -124 343 l-124 334 -64 3 -63 3 -125 -337z m236 84 c24 -73
44 -136 44 -140 0 -5 -43 -8 -96 -8 -73 0 -94 3 -91 13 3 6 25 71 49 144 23
72 44 130 47 128 2 -2 23 -64 47 -137z"/>
<path d="M2710 665 l0 -347 153 4 c169 5 223 19 296 77 140 111 140 421 -1
532 -65 52 -135 70 -300 76 l-148 6 0 -348z m301 233 c55 -18 86 -45 111 -96
19 -39 23 -62 22 -137 -1 -104 -16 -147 -68 -192 -44 -40 -84 -52 -176 -55
l-75 -3 -3 248 -2 247 78 0 c44 0 94 -5 113 -12z"/>
<path d="M1670 839 c-14 -6 -44 -29 -67 -52 -41 -39 -43 -40 -43 -17 0 59 -9
70 -56 70 l-44 0 0 -260 0 -260 54 0 54 0 3 164 c4 147 6 167 25 192 36 49 68
66 122 67 55 1 62 8 62 75 0 31 -1 32 -42 31 -24 0 -54 -5 -68 -10z"/>
<path d="M2020 841 c-123 -40 -176 -130 -168 -286 3 -66 9 -91 32 -129 61
-104 199 -142 354 -96 41 13 42 14 42 57 0 48 -1 49 -60 28 -55 -20 -143 -19
-186 1 -21 10 -40 31 -54 58 -37 78 -42 76 155 76 l175 0 0 34 c0 112 -42 202
-112 237 -45 23 -138 34 -178 20z m138 -103 c17 -15 42 -69 42 -93 0 -13 -18
-15 -115 -15 l-115 0 0 25 c0 92 116 142 188 83z"/>
<path d="M3529 836 c-61 -21 -96 -54 -126 -114 -23 -48 -28 -70 -28 -137 0
-93 15 -143 58 -191 52 -60 99 -78 202 -79 50 0 106 6 126 13 32 11 37 17 42
55 3 23 4 43 2 45 -2 2 -27 -4 -56 -12 -74 -22 -156 -21 -196 4 -36 22 -63 66
-63 105 l0 25 170 0 170 0 0 56 c0 76 -17 126 -57 174 -53 62 -160 86 -244 56z
m124 -80 c32 -8 67 -58 67 -98 l0 -28 -115 0 c-114 0 -115 0 -115 24 0 52 80
124 125 111 5 -2 23 -6 38 -9z"/>
<path d="M850 642 c0 -185 1 -201 23 -242 12 -25 36 -53 54 -63 72 -41 192
-30 245 23 30 30 32 30 42 -12 6 -25 11 -28 51 -28 l45 0 0 260 0 260 -60 0
-60 0 0 -172 c0 -205 -9 -234 -75 -257 -60 -20 -111 -8 -135 32 -18 29 -20 51
-20 215 l0 182 -55 0 -55 0 0 -198z"/>
<path d="M3880 833 c0 -4 43 -121 97 -261 l96 -253 60 3 61 3 98 255 c54 140
98 256 98 258 0 1 -26 2 -59 2 l-59 0 -66 -191 c-36 -105 -66 -201 -67 -212 0
-21 -1 -21 -9 -2 -4 11 -36 107 -71 212 l-64 193 -57 0 c-32 0 -58 -3 -58 -7z"/>
</g>
</svg>
